<mxfile host="app.diagrams.net" modified="2021-05-12T02:30:08.994Z" agent="5.0 (Windows NT 10.0; Win64; x64) AppleWebKit/537.36 (KHTML, like Gecko) Chrome/90.0.4430.93 Safari/537.36" etag="DdfVDwsLOc3v1fhv68_R" version="14.6.12" type="github">
  <diagram name="Page-1" id="c4acf3e9-155e-7222-9cf6-157b1a14988f">
    <mxGraphModel dx="782" dy="710" grid="1" gridSize="10" guides="1" tooltips="1" connect="1" arrows="1" fold="1" page="1" pageScale="1" pageWidth="850" pageHeight="1100" background="#ffffff" math="0" shadow="0">
      <root>
        <mxCell id="0" />
        <mxCell id="1" parent="0" />
        <mxCell id="XpiNQww2D-5k7rc9l9Bk-2" value="Cliente" style="swimlane;fontStyle=1;align=center;verticalAlign=top;childLayout=stackLayout;horizontal=1;startSize=26;horizontalStack=0;resizeParent=1;resizeParentMax=0;resizeLast=0;collapsible=1;marginBottom=0;" vertex="1" parent="1">
          <mxGeometry x="490" y="150" width="160" height="170" as="geometry" />
        </mxCell>
        <mxCell id="XpiNQww2D-5k7rc9l9Bk-3" value="- nombre: String&#xa;- apellido: String&#xa;- direccion: String&#xa;- edad: float&#xa;- sueldoNetoMensual:float" style="text;strokeColor=none;fillColor=none;align=left;verticalAlign=top;spacingLeft=4;spacingRight=4;overflow=hidden;rotatable=0;points=[[0,0.5],[1,0.5]];portConstraint=eastwest;" vertex="1" parent="XpiNQww2D-5k7rc9l9Bk-2">
          <mxGeometry y="26" width="160" height="84" as="geometry" />
        </mxCell>
        <mxCell id="XpiNQww2D-5k7rc9l9Bk-4" value="" style="line;strokeWidth=1;fillColor=none;align=left;verticalAlign=middle;spacingTop=-1;spacingLeft=3;spacingRight=3;rotatable=0;labelPosition=right;points=[];portConstraint=eastwest;" vertex="1" parent="XpiNQww2D-5k7rc9l9Bk-2">
          <mxGeometry y="110" width="160" height="8" as="geometry" />
        </mxCell>
        <mxCell id="XpiNQww2D-5k7rc9l9Bk-5" value="+ getters y setters&#xa;+ sueldoNetoAnual: float&#xa;+ solicitarCredito(Banco)" style="text;strokeColor=none;fillColor=none;align=left;verticalAlign=top;spacingLeft=4;spacingRight=4;overflow=hidden;rotatable=0;points=[[0,0.5],[1,0.5]];portConstraint=eastwest;" vertex="1" parent="XpiNQww2D-5k7rc9l9Bk-2">
          <mxGeometry y="118" width="160" height="52" as="geometry" />
        </mxCell>
        <mxCell id="XpiNQww2D-5k7rc9l9Bk-6" value="Banco" style="swimlane;fontStyle=1;align=center;verticalAlign=top;childLayout=stackLayout;horizontal=1;startSize=26;horizontalStack=0;resizeParent=1;resizeParentMax=0;resizeLast=0;collapsible=1;marginBottom=0;" vertex="1" parent="1">
          <mxGeometry x="110" y="150" width="250" height="188" as="geometry" />
        </mxCell>
        <mxCell id="XpiNQww2D-5k7rc9l9Bk-7" value="- clientes: ArrayList&lt;Cliente&gt;&#xa;- solicitudesDeCreditos: ArrayList&lt;Solicitud&gt;" style="text;strokeColor=none;fillColor=none;align=left;verticalAlign=top;spacingLeft=4;spacingRight=4;overflow=hidden;rotatable=0;points=[[0,0.5],[1,0.5]];portConstraint=eastwest;" vertex="1" parent="XpiNQww2D-5k7rc9l9Bk-6">
          <mxGeometry y="26" width="250" height="34" as="geometry" />
        </mxCell>
        <mxCell id="XpiNQww2D-5k7rc9l9Bk-8" value="" style="line;strokeWidth=1;fillColor=none;align=left;verticalAlign=middle;spacingTop=-1;spacingLeft=3;spacingRight=3;rotatable=0;labelPosition=right;points=[];portConstraint=eastwest;" vertex="1" parent="XpiNQww2D-5k7rc9l9Bk-6">
          <mxGeometry y="60" width="250" height="28" as="geometry" />
        </mxCell>
        <mxCell id="XpiNQww2D-5k7rc9l9Bk-9" value="+ getClientes: ArrayList&lt;Cliente&gt;&#xa;+ setClientes: ArrayList&lt;Cliente&gt;&#xa;+ agregarCliente: void&#xa;+ eliminarCliente: void&#xa;+ registrarSolicitudCredito: void&#xa;+ otorgarCredito(Cliente)" style="text;strokeColor=none;fillColor=none;align=left;verticalAlign=top;spacingLeft=4;spacingRight=4;overflow=hidden;rotatable=0;points=[[0,0.5],[1,0.5]];portConstraint=eastwest;" vertex="1" parent="XpiNQww2D-5k7rc9l9Bk-6">
          <mxGeometry y="88" width="250" height="100" as="geometry" />
        </mxCell>
        <mxCell id="XpiNQww2D-5k7rc9l9Bk-10" value="" style="html=1;verticalAlign=bottom;endArrow=block;entryX=0;entryY=0.25;entryDx=0;entryDy=0;" edge="1" parent="1" source="XpiNQww2D-5k7rc9l9Bk-6" target="XpiNQww2D-5k7rc9l9Bk-2">
          <mxGeometry width="80" relative="1" as="geometry">
            <mxPoint x="380" y="170" as="sourcePoint" />
            <mxPoint x="460" y="170" as="targetPoint" />
          </mxGeometry>
        </mxCell>
        <mxCell id="XpiNQww2D-5k7rc9l9Bk-11" value="1" style="text;html=1;align=center;verticalAlign=middle;resizable=0;points=[];autosize=1;strokeColor=none;" vertex="1" parent="1">
          <mxGeometry x="470" y="170" width="20" height="20" as="geometry" />
        </mxCell>
        <mxCell id="XpiNQww2D-5k7rc9l9Bk-12" value="n" style="text;html=1;align=center;verticalAlign=middle;resizable=0;points=[];autosize=1;strokeColor=none;" vertex="1" parent="1">
          <mxGeometry x="340" y="190" width="20" height="20" as="geometry" />
        </mxCell>
      </root>
    </mxGraphModel>
  </diagram>
</mxfile>
